<?xml version="1.0" encoding="UTF-8" standalone="no"?><svg xmlns="http://www.w3.org/2000/svg" xmlns:xlink="http://www.w3.org/1999/xlink" fill="#c48806" height="16" preserveAspectRatio="xMidYMid meet" version="1" viewBox="0.0 0.0 16.0 16.0" width="16" zoomAndPan="magnify"><g id="change1_1"><path d="M8,0C3.582,0,0,3.582,0,8s3.582,8,8,8s8-3.582,8-8S12.418,0,8,0z M12.5,11.9c0,0.331-0.269,0.6-0.6,0.6 c-4.638,0-8.4-3.762-8.4-8.4c0-0.331,0.269-0.6,0.6-0.6h1.5c0.331,0,0.6,0.269,0.6,0.6c0,0.68,0.12,1.333,0.337,1.937 C6.588,6.18,6.525,6.338,6.39,6.406L5.558,6.824c0.696,1.62,1.998,2.922,3.618,3.618L9.594,9.61 c0.068-0.135,0.227-0.198,0.369-0.147C10.567,9.68,11.22,9.8,11.9,9.8c0.331,0,0.6,0.269,0.6,0.6V11.9z" fill="inherit"/></g></svg>