<?xml version="1.0" encoding="UTF-8" standalone="no"?><svg xmlns="http://www.w3.org/2000/svg" xmlns:xlink="http://www.w3.org/1999/xlink" fill="#000000" height="1369.4" preserveAspectRatio="xMidYMid meet" version="1" viewBox="0.0 0.0 9138.5 1369.4" width="9138.5" zoomAndPan="magnify"><defs><linearGradient gradientTransform="matrix(1 0 0 -1 0 1527.39)" gradientUnits="userSpaceOnUse" id="a" x1="4604.57" x2="3793.31" xlink:actuate="onLoad" xlink:show="other" xlink:type="simple" y1="2422.82" y2="794.08"><stop offset="0.03" stop-color="#1d1d1b" stop-opacity="0.8"/><stop offset="0.85" stop-color="#1d1d1b" stop-opacity="0"/></linearGradient><linearGradient id="d" x1="2002.5" x2="1494.03" xlink:actuate="onLoad" xlink:href="#a" xlink:show="other" xlink:type="simple" y1="385.16" y2="1444.98"/><linearGradient id="e" x1="6058.24" x2="7519.8" xlink:actuate="onLoad" xlink:href="#a" xlink:show="other" xlink:type="simple" y1="368.88" y2="1101.31"/><linearGradient id="f" x1="5235.27" x2="6042.75" xlink:actuate="onLoad" xlink:href="#a" xlink:show="other" xlink:type="simple" y1="2423.5" y2="790.62"/><linearGradient gradientTransform="matrix(1 0 0 -1 0 1527.39)" gradientUnits="userSpaceOnUse" id="b" x1="2047.79" x2="1904.02" xlink:actuate="onLoad" xlink:show="other" xlink:type="simple" y1="1498.69" y2="727.39"><stop offset="0" stop-color="#1d1d1b" stop-opacity="0.8"/><stop offset="0.85" stop-color="#1d1d1b" stop-opacity="0"/></linearGradient><linearGradient id="g" x1="1078.78" x2="2221.6" xlink:actuate="onLoad" xlink:href="#b" xlink:show="other" xlink:type="simple" y1="52.69" y2="716.02"/><linearGradient id="h" x1="681.36" x2="614.46" xlink:actuate="onLoad" xlink:href="#b" xlink:show="other" xlink:type="simple" y1="645.39" y2="1260.49"/><linearGradient id="i" x1="7798.06" x2="8773.69" xlink:actuate="onLoad" xlink:href="#a" xlink:show="other" xlink:type="simple" y1="1052.55" y2="382.14"/><linearGradient id="j" x1="8680.14" x2="9137.08" xlink:actuate="onLoad" xlink:href="#a" xlink:show="other" xlink:type="simple" y1="383.1" y2="909.48"/><linearGradient gradientTransform="matrix(1 0 0 -1 0 1527.39)" gradientUnits="userSpaceOnUse" id="c" x1="8827.69" x2="8110.73" xlink:actuate="onLoad" xlink:show="other" xlink:type="simple" y1="275.29" y2="1197.93"><stop offset="0" stop-color="#ffffff" stop-opacity="0.3"/><stop offset="0.15" stop-color="#ffffff" stop-opacity="0.19"/><stop offset="0.31" stop-color="#ffffff" stop-opacity="0.11"/><stop offset="0.49" stop-color="#ffffff" stop-opacity="0.05"/><stop offset="0.7" stop-color="#ffffff" stop-opacity="0.01"/><stop offset="1" stop-color="#ffffff" stop-opacity="0"/></linearGradient><linearGradient id="k" x1="647.17" x2="829.95" xlink:actuate="onLoad" xlink:href="#c" xlink:show="other" xlink:type="simple" y1="800.26" y2="1689.86"/><linearGradient id="l" x1="8447.73" x2="8390.71" xlink:actuate="onLoad" xlink:href="#a" xlink:show="other" xlink:type="simple" y1="1008.14" y2="396.82"/></defs><g id="change1_1"><path d="M9138.51 318.27L7668.42 1308.69 7635.05 1369.39 9138.51 975.93 9138.51 318.27z" fill="#efa400"/></g><g id="change1_2"><path d="M0 144.34L4022.41 778.6 3917.78 803.67 2300.48 1031.19 0 337.59 0 144.34z" fill="#efa400"/></g><g id="change2_1"><path d="M9138.51 389.38L7635.05 1369.39 0 207.6 0 0 9138.51 0 9138.51 389.38z" fill="#545454"/></g><path d="M7635.05 1369.39L3008.58 0 0 0 0 207.6 7635.05 1369.39z" fill="url(#a)"/><path d="M3008.58 0L1503.46 436.48 0 207.6 0 0 3008.58 0z" fill="url(#d)"/><path d="M7635.05 1369.39L6372.41 0 9138.51 0 9138.51 389.38 7635.05 1369.39z" fill="url(#e)"/><path d="M6372.41 0L4637.35 482.08 7635.05 1369.39 6372.41 0z" fill="url(#f)"/><path d="M0 207.6L0 337.59 440.11 470.3 3090.26 920.22 3917.78 803.67 0 207.6z" fill="url(#b)"/><path d="M2300.48 1031.19L1250.87 397.98 3917.78 803.67 2300.48 1031.19z" fill="url(#g)"/><path d="M1250.87 397.98L440.11 470.3 0 337.59 0 207.6 1250.87 397.98z" fill="url(#h)"/><path d="M7635.05 1369.39L8709.12 1088.41 9138.51 389.38 7635.05 1369.39z" fill="url(#i)"/><path d="M9138.51 975.93L8871.73 563.91 9138.51 389.38 9138.51 975.93z" fill="url(#j)"/><path d="M7635.05 1369.39L9138.51 389.38 9138.51 0 8386.93 0 7635.05 1369.39z" fill="url(#c)"/><path d="M1503.46 436.48L0 207.6 0 0 864.51 0 1503.46 436.48z" fill="url(#k)"/><path d="M9138.51 975.93L8173.14 1018.66 7635.05 1369.39 9138.51 975.93z" fill="url(#l)"/></svg>